%FSLAX34Y34*%
%MOMM*%
%LNSOLDERMASK_BOTTOM*%
G71*
G01*
%ADD10C, 3.100*%
%ADD11R, 2.100X3.600*%
%ADD12C, 1.900*%
%ADD13C, 3.100*%
%ADD14C, 2.100*%
%ADD15R, 2.300X1.100*%
%ADD16R, 1.350X1.000*%
%LPD*%
X300000Y-20000D02*
G54D10*
D03*
X300000Y-70000D02*
G54D10*
D03*
X300000Y-120000D02*
G54D10*
D03*
X300000Y-170000D02*
G54D10*
D03*
X300000Y-220000D02*
G54D10*
D03*
X277500Y-170000D02*
G54D10*
D03*
X277500Y-220000D02*
G54D10*
D03*
X207000Y-176250D02*
G54D11*
D03*
X118000Y-176250D02*
G54D11*
D03*
X260500Y-32500D02*
G54D12*
D03*
X235500Y-32500D02*
G54D12*
D03*
X260500Y-87500D02*
G54D12*
D03*
X235500Y-87500D02*
G54D12*
D03*
X236423Y-142444D02*
G54D12*
D03*
X261423Y-142444D02*
G54D12*
D03*
X26000Y-88500D02*
G54D12*
D03*
X51000Y-88500D02*
G54D12*
D03*
G54D13*
X277500Y-170000D02*
X300000Y-170000D01*
G54D13*
X277500Y-220000D02*
X300000Y-220000D01*
X207000Y-73750D02*
G54D11*
D03*
X118000Y-73750D02*
G54D11*
D03*
X76000Y-32500D02*
G54D14*
D03*
X51000Y-32500D02*
G54D14*
D03*
X26000Y-32500D02*
G54D14*
D03*
X16000Y-166500D02*
G54D15*
D03*
X16000Y-179200D02*
G54D15*
D03*
X16000Y-191900D02*
G54D15*
D03*
X16000Y-204600D02*
G54D15*
D03*
X16000Y-217300D02*
G54D15*
D03*
X16000Y-230000D02*
G54D15*
D03*
X143451Y-12250D02*
G54D16*
D03*
X118751Y-12250D02*
G54D16*
D03*
M02*
