%FSLAX34Y34*%
%MOMM*%
%LNCOPPER_BOTTOM*%
G71*
G01*
%ADD10C, 1.200*%
%ADD11C, 3.600*%
%ADD12R, 2.600X4.100*%
%ADD13C, 2.400*%
%ADD14C, 0.900*%
%ADD15C, 3.600*%
%ADD16C, 2.600*%
%ADD17R, 2.800X1.600*%
%ADD18C, 0.300*%
%ADD19R, 1.850X1.500*%
%ADD20C, 0.850*%
%ADD21C, 0.500*%
%ADD22C, 1.200*%
%ADD23C, 1.000*%
%ADD24C, 1.400*%
%ADD25C, 0.600*%
%ADD26C, 0.798*%
%ADD27C, 0.396*%
%ADD28C, 1.387*%
%ADD29C, 0.400*%
%ADD30C, 0.600*%
%ADD31C, 3.000*%
%ADD32R, 2.000X3.500*%
%ADD33C, 1.800*%
%ADD34C, 3.000*%
%ADD35C, 2.000*%
%ADD36R, 2.200X1.000*%
%ADD37R, 1.250X0.900*%
%ADD38C, 0.250*%
%ADD39C, 0.450*%
%LPD*%
G36*
X-51000Y50500D02*
X369000Y50500D01*
X369000Y-299500D01*
X-51000Y-299500D01*
X-51000Y50500D01*
G37*
%LPC*%
X101050Y-103150D02*
G54D10*
D03*
X300000Y-20000D02*
G54D11*
D03*
X300000Y-70000D02*
G54D11*
D03*
X300000Y-120000D02*
G54D11*
D03*
X300000Y-170000D02*
G54D11*
D03*
X300000Y-220000D02*
G54D11*
D03*
X277500Y-170000D02*
G54D11*
D03*
X277500Y-220000D02*
G54D11*
D03*
X207000Y-176250D02*
G54D12*
D03*
X118000Y-176250D02*
G54D12*
D03*
X260500Y-32500D02*
G54D13*
D03*
X235500Y-32500D02*
G54D13*
D03*
X260500Y-87500D02*
G54D13*
D03*
X235500Y-87500D02*
G54D13*
D03*
X236423Y-142444D02*
G54D13*
D03*
X261423Y-142444D02*
G54D13*
D03*
X67500Y-103150D02*
G54D10*
D03*
X100550Y-188550D02*
G54D10*
D03*
X45000Y-188500D02*
G54D10*
D03*
X57500Y-188500D02*
G54D10*
D03*
X100550Y-197550D02*
G54D10*
D03*
G54D14*
X100550Y-197550D02*
X89450Y-197550D01*
X72450Y-180550D01*
X52950Y-180550D01*
X45000Y-188500D01*
X26000Y-88500D02*
G54D13*
D03*
X51000Y-88500D02*
G54D13*
D03*
G54D14*
X67500Y-103150D02*
X101050Y-103150D01*
X118350Y-103150D02*
G54D10*
D03*
G54D14*
X111350Y-103150D02*
X103700Y-95500D01*
X77500Y-95500D01*
X56500Y-74500D01*
X56500Y-69500D01*
X207000Y-189000D02*
G54D10*
D03*
X202000Y-189000D02*
G54D10*
D03*
X212000Y-189000D02*
G54D10*
D03*
X207000Y-61000D02*
G54D10*
D03*
X202000Y-61000D02*
G54D10*
D03*
X212000Y-61000D02*
G54D10*
D03*
X94000Y-205000D02*
G54D10*
D03*
G54D14*
X57500Y-188500D02*
X71500Y-188500D01*
X88000Y-205000D01*
X94000Y-205000D01*
X80000Y-150500D02*
G54D10*
D03*
G54D14*
X100550Y-188550D02*
X89050Y-188550D01*
X80000Y-179500D01*
X80000Y-150500D01*
G54D14*
X143350Y-102150D02*
X143350Y-114650D01*
X121950Y-136050D01*
X91350Y-136050D01*
X84100Y-143300D01*
G54D15*
X277500Y-170000D02*
X300000Y-170000D01*
G54D15*
X277500Y-220000D02*
X300000Y-220000D01*
G36*
X5000Y-5000D02*
X315000Y-5000D01*
X315000Y-235000D01*
X5000Y-235000D01*
X5000Y-5000D01*
X-51000Y50500D01*
X-51000Y-299500D01*
X369000Y-299500D01*
X369000Y50500D01*
X-51000Y50500D01*
X5000Y-5000D01*
G37*
X207000Y-73750D02*
G54D12*
D03*
X118000Y-73750D02*
G54D12*
D03*
G36*
X323500Y-225500D02*
X305500Y-225500D01*
X300000Y-220000D01*
X300000Y-239500D01*
X319500Y-244500D01*
X323500Y-225500D01*
G37*
G36*
X100550Y-188550D02*
X106500Y-188550D01*
X106500Y-194500D01*
X100550Y-194500D01*
X100550Y-188550D01*
G37*
X76000Y-32500D02*
G54D16*
D03*
X51000Y-32500D02*
G54D16*
D03*
X26000Y-32500D02*
G54D16*
D03*
G36*
X88000Y-195000D02*
X100000Y-195000D01*
X100000Y-190000D01*
X88000Y-190000D01*
X88000Y-195000D01*
G37*
X118350Y-115850D02*
G54D10*
D03*
X118350Y-128550D02*
G54D10*
D03*
X65050Y-94450D02*
G54D10*
D03*
X16000Y-166500D02*
G54D17*
D03*
X16000Y-179200D02*
G54D17*
D03*
X16000Y-191900D02*
G54D17*
D03*
X16000Y-204600D02*
G54D17*
D03*
X16000Y-217300D02*
G54D17*
D03*
X16000Y-230000D02*
G54D17*
D03*
X21500Y-179200D02*
G54D10*
D03*
X18500Y-146700D02*
G54D10*
D03*
G54D14*
X18500Y-146700D02*
X21500Y-143700D01*
X21500Y-121000D01*
X29500Y-113000D01*
X46500Y-113000D01*
X65050Y-94450D01*
X21500Y-191900D02*
G54D10*
D03*
X8000Y-146700D02*
G54D10*
D03*
G54D14*
X16000Y-204600D02*
X28400Y-204600D01*
X31500Y-201500D01*
X31500Y-163000D01*
X70850Y-123650D01*
X112550Y-123650D01*
X118350Y-117850D01*
X118350Y-115850D01*
X63000Y-157500D02*
G54D10*
D03*
X80000Y-137000D02*
G54D10*
D03*
G54D14*
X63000Y-157500D02*
X63000Y-148500D01*
X74500Y-137000D01*
X80000Y-137000D01*
G54D14*
X16000Y-217300D02*
X28700Y-217300D01*
X37500Y-208500D01*
X37500Y-165500D01*
X73450Y-129550D01*
X117350Y-129550D01*
X118350Y-128550D01*
G36*
X28400Y-204600D02*
X34000Y-204600D01*
X34000Y-211000D01*
X28400Y-211000D01*
X28400Y-204600D01*
G37*
G36*
X65000Y-146000D02*
X71000Y-146000D01*
X71000Y-155500D01*
X65000Y-155500D01*
X65000Y-146000D01*
G37*
G54D18*
X118350Y-103150D02*
X118350Y-115850D01*
X143451Y-12250D02*
G54D19*
D03*
X118751Y-12250D02*
G54D19*
D03*
X146001Y-44500D02*
G54D10*
D03*
X116001Y-44500D02*
G54D10*
D03*
G54D14*
X116001Y-44500D02*
X116001Y-37000D01*
X118751Y-34250D01*
X118751Y-12250D01*
G36*
X120750Y-19750D02*
X140250Y-19750D01*
X140250Y-3250D01*
X120750Y-3250D01*
X120750Y-19750D01*
G37*
X143350Y-102150D02*
G54D10*
D03*
G36*
X83000Y-130000D02*
X88500Y-130000D01*
X88500Y-136500D01*
X83000Y-136500D01*
X83000Y-130000D01*
G37*
G54D18*
X8000Y-146700D02*
X21500Y-146700D01*
G54D14*
X146001Y-44500D02*
X146001Y-36800D01*
X143451Y-34250D01*
X143451Y-12250D01*
G54D14*
X72450Y-180550D02*
X72450Y-147550D01*
X76200Y-143800D01*
G54D20*
X76450Y-143550D02*
X83850Y-143550D01*
G54D14*
X118350Y-103150D02*
X111350Y-103150D01*
X104000Y-110500D01*
X57500Y-110500D01*
X49000Y-119000D01*
X32000Y-119000D01*
X27500Y-123500D01*
X27500Y-148000D01*
X21500Y-154000D01*
X15300Y-154000D01*
X8000Y-146700D01*
G36*
X4500Y-151000D02*
X5000Y-151500D01*
X30250Y-151500D01*
X22250Y-159500D01*
X4000Y-159500D01*
X4500Y-151000D01*
G37*
G36*
X58500Y-107000D02*
X65000Y-107000D01*
X65000Y-102000D01*
X58500Y-102000D01*
X58500Y-107000D01*
G37*
G54D18*
X116001Y-44500D02*
X109500Y-51001D01*
X109500Y-58000D01*
G36*
X306500Y-3000D02*
X317500Y-3000D01*
X317500Y-12500D01*
X306500Y-12500D01*
X306500Y-3000D01*
G37*
G54D18*
X277500Y-220000D02*
X244500Y-187000D01*
X244500Y-158250D01*
X239500Y-153250D01*
G54D18*
X129500Y-157250D02*
X148250Y-138500D01*
X171500Y-138500D01*
X179500Y-130500D01*
X179500Y-120500D01*
G54D18*
X264000Y-77500D02*
X279000Y-62500D01*
X287500Y-62500D01*
G54D18*
X141000Y-120500D02*
X202500Y-120500D01*
X235500Y-87500D01*
G54D21*
X236423Y-142444D02*
X261423Y-142444D01*
G54D18*
X261423Y-142444D02*
X277500Y-170000D01*
G54D18*
X265500Y-132000D02*
X277500Y-120000D01*
X300000Y-120000D01*
G54D21*
X260500Y-87500D02*
X235500Y-87500D01*
X177600Y-184200D02*
G54D10*
D03*
X164500Y-171100D02*
G54D10*
D03*
G54D14*
X164500Y-171100D02*
X177600Y-184200D01*
G36*
X61500Y-83500D02*
X77500Y-99500D01*
X77500Y-100500D01*
X69500Y-100000D01*
X57000Y-92500D01*
X61500Y-83500D01*
G37*
G54D18*
X77000Y-197000D02*
X71000Y-203000D01*
X62000Y-203000D01*
X38500Y-226500D01*
X38500Y-237500D01*
X56500Y-69500D02*
G54D10*
D03*
G54D14*
X235500Y-32500D02*
X235500Y-11000D01*
X231000Y-6500D01*
X151200Y-6500D01*
X148451Y-9250D01*
G54D21*
X235500Y-32500D02*
X260500Y-32500D01*
G54D21*
X51000Y-88500D02*
X26000Y-88500D01*
G54D18*
X216750Y-92750D02*
X227250Y-92750D01*
G54D18*
X217250Y-157250D02*
X221617Y-157250D01*
X236423Y-142444D01*
%LPD*%
G54D22*
G36*
X306000Y-20000D02*
X306000Y-38500D01*
X294000Y-38500D01*
X294000Y-20000D01*
X306000Y-20000D01*
G37*
G36*
X300000Y-26000D02*
X281500Y-26000D01*
X281500Y-14000D01*
X300000Y-14000D01*
X300000Y-26000D01*
G37*
G54D22*
G36*
X306000Y-70000D02*
X306000Y-88500D01*
X294000Y-88500D01*
X294000Y-70000D01*
X306000Y-70000D01*
G37*
G36*
X300000Y-76000D02*
X281500Y-76000D01*
X281500Y-64000D01*
X300000Y-64000D01*
X300000Y-76000D01*
G37*
G54D23*
G36*
X305000Y-120000D02*
X305000Y-138500D01*
X295000Y-138500D01*
X295000Y-120000D01*
X305000Y-120000D01*
G37*
G54D23*
G36*
X295000Y-170000D02*
X295000Y-151500D01*
X305000Y-151500D01*
X305000Y-170000D01*
X295000Y-170000D01*
G37*
G54D23*
G36*
X295000Y-220000D02*
X295000Y-201500D01*
X305000Y-201500D01*
X305000Y-220000D01*
X295000Y-220000D01*
G37*
G54D23*
G36*
X272500Y-170000D02*
X272500Y-151500D01*
X282500Y-151500D01*
X282500Y-170000D01*
X272500Y-170000D01*
G37*
G54D23*
G36*
X272500Y-220000D02*
X272500Y-201500D01*
X282500Y-201500D01*
X282500Y-220000D01*
X272500Y-220000D01*
G37*
G54D24*
G36*
X118000Y-169250D02*
X131500Y-169250D01*
X131500Y-183250D01*
X118000Y-183250D01*
X118000Y-169250D01*
G37*
G36*
X125000Y-176250D02*
X125000Y-197250D01*
X111000Y-197250D01*
X111000Y-176250D01*
X125000Y-176250D01*
G37*
G54D25*
G54D25*
G54D25*
G54D25*
G54D26*
G36*
X239244Y-139623D02*
X248083Y-148461D01*
X242440Y-154104D01*
X233602Y-145265D01*
X239244Y-139623D01*
G37*
G54D25*
G54D27*
G36*
X24600Y-87100D02*
X33439Y-78261D01*
X36239Y-81061D01*
X27400Y-89900D01*
X24600Y-87100D01*
G37*
G36*
X27400Y-87100D02*
X36239Y-95939D01*
X33439Y-98739D01*
X24600Y-89900D01*
X27400Y-87100D01*
G37*
G36*
X27400Y-89900D02*
X18561Y-98739D01*
X15761Y-95939D01*
X24600Y-87100D01*
X27400Y-89900D01*
G37*
G36*
X24600Y-89900D02*
X15761Y-81061D01*
X18561Y-78261D01*
X27400Y-87100D01*
X24600Y-89900D01*
G37*
G54D27*
G54D28*
G36*
X118000Y-66816D02*
X131500Y-66816D01*
X131500Y-80684D01*
X118000Y-80684D01*
X118000Y-66816D01*
G37*
G36*
X124934Y-73750D02*
X124934Y-94750D01*
X111066Y-94750D01*
X111066Y-73750D01*
X124934Y-73750D01*
G37*
G36*
X111066Y-73750D02*
X111066Y-52750D01*
X124934Y-52750D01*
X124934Y-73750D01*
X111066Y-73750D01*
G37*
G54D29*
G36*
X52414Y-33914D02*
X42868Y-43460D01*
X40040Y-40632D01*
X49586Y-31086D01*
X52414Y-33914D01*
G37*
G36*
X49586Y-33914D02*
X40040Y-24368D01*
X42868Y-21540D01*
X52414Y-31086D01*
X49586Y-33914D01*
G37*
G36*
X49586Y-31086D02*
X59132Y-21540D01*
X61960Y-24368D01*
X52414Y-33914D01*
X49586Y-31086D01*
G37*
G36*
X52414Y-31086D02*
X61960Y-40632D01*
X59132Y-43460D01*
X49586Y-33914D01*
X52414Y-31086D01*
G37*
G54D21*
G54D21*
G36*
X16000Y-227500D02*
X30500Y-227500D01*
X30500Y-232500D01*
X16000Y-232500D01*
X16000Y-227500D01*
G37*
X101050Y-103150D02*
G54D30*
D03*
X300000Y-20000D02*
G54D31*
D03*
X300000Y-70000D02*
G54D31*
D03*
X300000Y-120000D02*
G54D31*
D03*
X300000Y-170000D02*
G54D31*
D03*
X300000Y-220000D02*
G54D31*
D03*
X277500Y-170000D02*
G54D31*
D03*
X277500Y-220000D02*
G54D31*
D03*
X207000Y-176250D02*
G54D32*
D03*
X118000Y-176250D02*
G54D32*
D03*
X260500Y-32500D02*
G54D33*
D03*
X235500Y-32500D02*
G54D33*
D03*
X260500Y-87500D02*
G54D33*
D03*
X235500Y-87500D02*
G54D33*
D03*
X236423Y-142444D02*
G54D33*
D03*
X261423Y-142444D02*
G54D33*
D03*
X67500Y-103150D02*
G54D30*
D03*
X100550Y-188550D02*
G54D30*
D03*
X45000Y-188500D02*
G54D30*
D03*
X57500Y-188500D02*
G54D30*
D03*
X100550Y-197550D02*
G54D30*
D03*
G54D18*
X100550Y-197550D02*
X89450Y-197550D01*
X72450Y-180550D01*
X52950Y-180550D01*
X45000Y-188500D01*
X26000Y-88500D02*
G54D33*
D03*
X51000Y-88500D02*
G54D33*
D03*
G54D18*
X67500Y-103150D02*
X101050Y-103150D01*
X169000Y-125000D02*
G54D30*
D03*
X175000Y-125000D02*
G54D30*
D03*
X118350Y-103150D02*
G54D30*
D03*
X99500Y-168500D02*
G54D30*
D03*
X93500Y-168500D02*
G54D30*
D03*
G54D18*
X111350Y-103150D02*
X103700Y-95500D01*
X77500Y-95500D01*
X56500Y-74500D01*
X56500Y-69500D01*
X207000Y-189000D02*
G54D30*
D03*
X202000Y-189000D02*
G54D30*
D03*
X212000Y-189000D02*
G54D30*
D03*
X207000Y-61000D02*
G54D30*
D03*
X202000Y-61000D02*
G54D30*
D03*
X212000Y-61000D02*
G54D30*
D03*
X94000Y-205000D02*
G54D30*
D03*
G54D18*
X57500Y-188500D02*
X71500Y-188500D01*
X88000Y-205000D01*
X94000Y-205000D01*
X80000Y-150500D02*
G54D30*
D03*
G54D18*
X100550Y-188550D02*
X89050Y-188550D01*
X80000Y-179500D01*
X80000Y-150500D01*
G54D18*
X143350Y-102150D02*
X143350Y-114650D01*
X121950Y-136050D01*
X91350Y-136050D01*
X84100Y-143300D01*
X109350Y-115850D02*
G54D30*
D03*
X35000Y-126500D02*
G54D30*
D03*
G54D34*
X277500Y-170000D02*
X300000Y-170000D01*
G54D34*
X277500Y-220000D02*
X300000Y-220000D01*
X207000Y-73750D02*
G54D32*
D03*
X118000Y-73750D02*
G54D32*
D03*
X76000Y-32500D02*
G54D35*
D03*
X51000Y-32500D02*
G54D35*
D03*
X26000Y-32500D02*
G54D35*
D03*
X118350Y-115850D02*
G54D30*
D03*
X118350Y-128550D02*
G54D30*
D03*
X65050Y-94450D02*
G54D30*
D03*
X16000Y-166500D02*
G54D36*
D03*
X16000Y-179200D02*
G54D36*
D03*
X16000Y-191900D02*
G54D36*
D03*
X16000Y-204600D02*
G54D36*
D03*
X16000Y-217300D02*
G54D36*
D03*
X16000Y-230000D02*
G54D36*
D03*
X21500Y-179200D02*
G54D30*
D03*
X18500Y-146700D02*
G54D30*
D03*
G54D18*
X18500Y-146700D02*
X21500Y-143700D01*
X21500Y-121000D01*
X29500Y-113000D01*
X46500Y-113000D01*
X65050Y-94450D01*
X21500Y-191900D02*
G54D30*
D03*
X8000Y-146700D02*
G54D30*
D03*
G54D18*
X16000Y-204600D02*
X28400Y-204600D01*
X31500Y-201500D01*
X31500Y-163000D01*
X70850Y-123650D01*
X112550Y-123650D01*
X118350Y-117850D01*
X118350Y-115850D01*
X63000Y-157500D02*
G54D30*
D03*
X80000Y-137000D02*
G54D30*
D03*
G54D18*
X63000Y-157500D02*
X63000Y-148500D01*
X74500Y-137000D01*
X80000Y-137000D01*
G54D18*
X16000Y-217300D02*
X28700Y-217300D01*
X37500Y-208500D01*
X37500Y-165500D01*
X73450Y-129550D01*
X117350Y-129550D01*
X118350Y-128550D01*
X69000Y-198250D02*
G54D30*
D03*
X143451Y-12250D02*
G54D37*
D03*
X118751Y-12250D02*
G54D37*
D03*
X146001Y-44500D02*
G54D30*
D03*
X116001Y-44500D02*
G54D30*
D03*
G54D18*
X116001Y-44500D02*
X116001Y-37000D01*
X118751Y-34250D01*
X118751Y-12250D01*
X143350Y-102150D02*
G54D30*
D03*
G54D18*
X146001Y-44500D02*
X146001Y-36800D01*
X143451Y-34250D01*
X143451Y-12250D01*
G54D18*
X72450Y-180550D02*
X72450Y-147550D01*
X76200Y-143800D01*
G54D38*
X76450Y-143550D02*
X83850Y-143550D01*
G54D18*
X118350Y-103150D02*
X111350Y-103150D01*
X104000Y-110500D01*
X57500Y-110500D01*
X49000Y-119000D01*
X32000Y-119000D01*
X27500Y-123500D01*
X27500Y-148000D01*
X21500Y-154000D01*
X15300Y-154000D01*
X8000Y-146700D01*
G54D39*
X29000Y-156000D02*
X24750Y-160250D01*
X24750Y-164750D01*
X105500Y-29000D02*
G54D30*
D03*
X105500Y-23000D02*
G54D30*
D03*
G36*
X131250Y-56250D02*
X131250Y-91250D01*
X127750Y-91250D01*
X127750Y-56250D01*
X131250Y-56250D01*
G37*
G36*
X131250Y-158750D02*
X131250Y-193750D01*
X127750Y-193750D01*
X127750Y-158750D01*
X131250Y-158750D01*
G37*
X177600Y-184200D02*
G54D30*
D03*
X164500Y-171100D02*
G54D30*
D03*
G54D18*
X164500Y-171100D02*
X177600Y-184200D01*
X105500Y-17000D02*
G54D30*
D03*
X56500Y-69500D02*
G54D30*
D03*
X105500Y-35000D02*
G54D30*
D03*
G54D18*
X235500Y-32500D02*
X235500Y-11000D01*
X231000Y-6500D01*
X151200Y-6500D01*
X148451Y-9250D01*
M02*
