%FSLAX34Y34*%
%MOMM*%
%LNSILK_TOP*%
G71*
G01*
%ADD10C, 0.150*%
%ADD11C, 0.700*%
%ADD12C, 0.222*%
%ADD13C, 0.200*%
%ADD14C, 0.244*%
%ADD15C, 0.167*%
%LPD*%
G54D10*
X170250Y-50000D02*
X161500Y-50000D01*
X161500Y-61500D01*
G54D10*
X181900Y-50000D02*
X190650Y-50000D01*
X190650Y-61500D01*
G54D10*
X172250Y-62750D02*
X179750Y-62750D01*
G54D10*
X181750Y-200000D02*
X190500Y-200000D01*
X190500Y-188500D01*
G54D10*
X170100Y-200000D02*
X161350Y-200000D01*
X161350Y-188500D01*
G54D10*
X179750Y-187250D02*
X172250Y-187250D01*
G54D10*
X158500Y-96250D02*
X158500Y-106000D01*
G54D10*
X170500Y-96250D02*
X170500Y-106000D01*
G54D10*
X164500Y-96000D02*
X164500Y-97750D01*
X162500Y-97750D01*
X162500Y-104250D01*
X166500Y-104250D01*
X166500Y-97750D01*
X164500Y-97750D01*
G54D10*
X164500Y-106250D02*
X164500Y-104250D01*
G54D10*
X170500Y-153750D02*
X170500Y-144000D01*
G54D10*
X158500Y-153750D02*
X158500Y-144000D01*
G54D10*
X164500Y-154000D02*
X164500Y-152250D01*
X166500Y-152250D01*
X166500Y-145750D01*
X162500Y-145750D01*
X162500Y-152250D01*
X164500Y-152250D01*
G54D10*
X164500Y-143750D02*
X164500Y-145750D01*
G54D10*
X88800Y-85650D02*
X122050Y-85650D01*
X122050Y-133150D01*
X88800Y-133150D01*
X88800Y-85650D01*
X96000Y-92500D02*
G54D11*
D03*
G54D10*
X98250Y-150000D02*
X108000Y-150000D01*
G54D10*
X98250Y-138000D02*
X108000Y-138000D01*
G54D10*
X104500Y-146750D02*
X104500Y-141250D01*
G54D10*
X101750Y-146750D02*
X101750Y-141250D01*
G54D10*
X101000Y-144000D02*
X99250Y-144000D01*
G54D10*
X107250Y-144000D02*
X105250Y-144000D01*
G54D10*
X110250Y-69000D02*
X100500Y-69000D01*
G54D10*
X110250Y-81000D02*
X100500Y-81000D01*
G54D10*
X110500Y-75000D02*
X108750Y-75000D01*
X108750Y-73000D01*
X102250Y-73000D01*
X102250Y-77000D01*
X108750Y-77000D01*
X108750Y-75000D01*
G54D10*
X100250Y-75000D02*
X102250Y-75000D01*
G54D10*
X88800Y-154650D02*
X122050Y-154650D01*
X122050Y-202150D01*
X88800Y-202150D01*
X88800Y-154650D01*
X96000Y-161500D02*
G54D11*
D03*
G54D10*
X175803Y-146022D02*
X175803Y-163022D01*
G54D10*
X189803Y-146022D02*
X189803Y-163022D01*
G54D10*
X182678Y-148772D02*
X182678Y-151272D01*
X180678Y-151272D01*
X180678Y-157772D01*
X184678Y-157772D01*
X184678Y-151272D01*
X182678Y-151272D01*
G54D10*
X182678Y-160272D02*
X182678Y-157772D01*
G54D10*
X175803Y-87022D02*
X175803Y-104022D01*
G54D10*
X189803Y-87022D02*
X189803Y-104022D01*
G54D10*
X182678Y-89772D02*
X182678Y-92272D01*
X180678Y-92272D01*
X180678Y-98772D01*
X184678Y-98772D01*
X184678Y-92272D01*
X182678Y-92272D01*
G54D10*
X182678Y-101272D02*
X182678Y-98772D01*
G54D10*
X207024Y-156290D02*
X207024Y-162690D01*
X200724Y-162690D01*
X213424Y-162689D01*
X207024Y-162690D01*
X200724Y-170590D01*
X213424Y-170590D01*
X207024Y-162690D01*
G54D10*
X207024Y-170590D02*
X207024Y-176990D01*
G36*
X194524Y-156490D02*
X219524Y-156490D01*
X219524Y-149689D01*
X194524Y-149690D01*
X194524Y-156490D01*
G37*
G54D10*
X195124Y-150440D02*
X195124Y-182690D01*
G54D10*
X218874Y-150440D02*
X218874Y-182690D01*
G54D10*
X207000Y-93400D02*
X207000Y-87000D01*
X213300Y-87000D01*
X200600Y-87000D01*
X207000Y-87000D01*
X213300Y-79100D01*
X200600Y-79100D01*
X207000Y-87000D01*
G54D10*
X207000Y-79100D02*
X207000Y-72700D01*
G36*
X219500Y-93200D02*
X194500Y-93200D01*
X194500Y-100000D01*
X219500Y-100000D01*
X219500Y-93200D01*
G37*
G54D10*
X218900Y-99250D02*
X218900Y-67000D01*
G54D10*
X195150Y-99250D02*
X195150Y-67000D01*
G54D10*
X51500Y-121750D02*
X51500Y-131500D01*
G54D10*
X63500Y-121750D02*
X63500Y-131500D01*
G54D10*
X57500Y-121500D02*
X57500Y-123250D01*
X55500Y-123250D01*
X55500Y-129750D01*
X59500Y-129750D01*
X59500Y-123250D01*
X57500Y-123250D01*
G54D10*
X57500Y-131750D02*
X57500Y-129750D01*
G54D10*
X51500Y-152750D02*
X51500Y-162500D01*
G54D10*
X63500Y-152750D02*
X63500Y-162500D01*
G54D10*
X57500Y-152500D02*
X57500Y-154250D01*
X55500Y-154250D01*
X55500Y-160750D01*
X59500Y-160750D01*
X59500Y-154250D01*
X57500Y-154250D01*
G54D10*
X57500Y-162750D02*
X57500Y-160750D01*
G54D10*
X34500Y-121750D02*
X34500Y-131500D01*
G54D10*
X46500Y-121750D02*
X46500Y-131500D01*
G54D10*
X40500Y-121500D02*
X40500Y-123250D01*
X38500Y-123250D01*
X38500Y-129750D01*
X42500Y-129750D01*
X42500Y-123250D01*
X40500Y-123250D01*
G54D10*
X40500Y-131750D02*
X40500Y-129750D01*
G54D10*
X34500Y-152750D02*
X34500Y-162500D01*
G54D10*
X46500Y-152750D02*
X46500Y-162500D01*
G54D10*
X40500Y-152500D02*
X40500Y-154250D01*
X38500Y-154250D01*
X38500Y-160750D01*
X42500Y-160750D01*
X42500Y-154250D01*
X40500Y-154250D01*
G54D10*
X40500Y-162750D02*
X40500Y-160750D01*
G54D10*
X34500Y-183750D02*
X34500Y-193500D01*
G54D10*
X46500Y-183750D02*
X46500Y-193500D01*
G54D10*
X37750Y-190000D02*
X43250Y-190000D01*
G54D10*
X37750Y-187250D02*
X43250Y-187250D01*
G54D10*
X40500Y-186500D02*
X40500Y-184750D01*
G54D10*
X40500Y-192750D02*
X40500Y-190750D01*
G54D10*
X51500Y-183750D02*
X51500Y-193500D01*
G54D10*
X63500Y-183750D02*
X63500Y-193500D01*
G54D10*
X54750Y-190000D02*
X60250Y-190000D01*
G54D10*
X54750Y-187250D02*
X60250Y-187250D01*
G54D10*
X57500Y-186500D02*
X57500Y-184750D01*
G54D10*
X57500Y-192750D02*
X57500Y-190750D01*
G54D10*
X141500Y-96250D02*
X141500Y-106000D01*
G54D10*
X153500Y-96250D02*
X153500Y-106000D01*
G54D10*
X147500Y-96000D02*
X147500Y-97750D01*
X145500Y-97750D01*
X145500Y-104250D01*
X149500Y-104250D01*
X149500Y-97750D01*
X147500Y-97750D01*
G54D10*
X147500Y-106250D02*
X147500Y-104250D01*
G54D10*
X141500Y-144250D02*
X141500Y-154000D01*
G54D10*
X153500Y-144250D02*
X153500Y-154000D01*
G54D10*
X147500Y-144000D02*
X147500Y-145750D01*
X145500Y-145750D01*
X145500Y-152250D01*
X149500Y-152250D01*
X149500Y-145750D01*
X147500Y-145750D01*
G54D10*
X147500Y-154250D02*
X147500Y-152250D01*
G54D10*
X17500Y-111250D02*
X17500Y-121000D01*
G54D10*
X29500Y-111250D02*
X29500Y-121000D01*
G54D10*
X23500Y-111000D02*
X23500Y-112750D01*
X21500Y-112750D01*
X21500Y-119250D01*
X25500Y-119250D01*
X25500Y-112750D01*
X23500Y-112750D01*
G54D10*
X23500Y-121250D02*
X23500Y-119250D01*
G54D10*
X152500Y-50000D02*
X153500Y-50000D01*
X153500Y-25000D01*
X145000Y-25000D01*
G54D10*
X109500Y-50000D02*
X108500Y-50000D01*
X108500Y-25000D01*
X117000Y-25000D01*
G54D10*
X131750Y-81000D02*
X141500Y-81000D01*
G54D10*
X131750Y-69000D02*
X141500Y-69000D01*
G54D10*
X138000Y-77750D02*
X138000Y-72250D01*
G54D10*
X135250Y-77750D02*
X135250Y-72250D01*
G54D10*
X134500Y-75000D02*
X132750Y-75000D01*
G54D10*
X140750Y-75000D02*
X138750Y-75000D01*
G54D10*
X58750Y-58500D02*
X68500Y-58500D01*
G54D10*
X58750Y-46500D02*
X68500Y-46500D01*
G54D10*
X65000Y-55250D02*
X65000Y-49750D01*
G54D10*
X62250Y-55250D02*
X62250Y-49750D01*
G54D10*
X61500Y-52500D02*
X59750Y-52500D01*
G54D10*
X67750Y-52500D02*
X65750Y-52500D01*
G54D12*
X254500Y-170222D02*
X243833Y-170222D01*
G54D12*
X249167Y-165778D02*
X249167Y-174667D01*
G54D12*
X249167Y-225056D02*
X249167Y-214389D01*
G54D13*
X265681Y-75666D02*
X281681Y-75666D01*
X271681Y-69666D01*
X281681Y-63666D01*
X265681Y-63666D01*
G54D13*
X278500Y-12900D02*
X280500Y-14100D01*
X281500Y-16500D01*
X281500Y-18900D01*
X280500Y-21300D01*
X278500Y-22500D01*
X268500Y-22500D01*
X266500Y-21300D01*
X265500Y-18900D01*
X265500Y-16500D01*
X266500Y-14100D01*
X268500Y-12900D01*
G54D14*
X278033Y-120222D02*
X266300Y-120222D01*
G54D14*
X272166Y-115334D02*
X272166Y-125111D01*
G54D10*
X188250Y-131000D02*
X198000Y-131000D01*
G54D10*
X188250Y-119000D02*
X198000Y-119000D01*
G54D10*
X194500Y-127750D02*
X194500Y-122250D01*
G54D10*
X191750Y-127750D02*
X191750Y-122250D01*
G54D10*
X191000Y-125000D02*
X189250Y-125000D01*
G54D10*
X197250Y-125000D02*
X195250Y-125000D01*
G54D15*
X247670Y-208147D02*
X242670Y-203147D01*
X256004Y-203147D01*
G54D15*
X256004Y-191480D02*
X256004Y-199480D01*
X255170Y-199480D01*
X253504Y-198480D01*
X248504Y-192480D01*
X246837Y-191480D01*
X245170Y-191480D01*
X243504Y-192480D01*
X242670Y-194480D01*
X242670Y-196480D01*
X243504Y-198480D01*
X245170Y-199480D01*
G54D15*
X248504Y-187813D02*
X256004Y-183813D01*
X248504Y-179813D01*
G54D10*
X30750Y-46500D02*
X21000Y-46500D01*
G54D10*
X30750Y-58500D02*
X21000Y-58500D01*
G54D10*
X31000Y-52500D02*
X29250Y-52500D01*
X29250Y-50500D01*
X22750Y-50500D01*
X22750Y-54500D01*
X29250Y-54500D01*
X29250Y-52500D01*
G54D10*
X20750Y-52500D02*
X22750Y-52500D01*
G54D10*
X41250Y-63500D02*
X31500Y-63500D01*
G54D10*
X41250Y-75500D02*
X31500Y-75500D01*
G54D10*
X41500Y-69500D02*
X39750Y-69500D01*
X39750Y-67500D01*
X33250Y-67500D01*
X33250Y-71500D01*
X39750Y-71500D01*
X39750Y-69500D01*
G54D10*
X31250Y-69500D02*
X33250Y-69500D01*
M02*
