%FSLAX34Y34*%
%MOMM*%
%LNSILK_BOTTOM*%
G71*
G01*
%ADD10C, 0.150*%
%ADD11C, 0.222*%
%ADD12C, 0.200*%
%ADD13C, 0.244*%
%ADD14C, 0.500*%
%ADD15C, 0.167*%
%ADD16C, 0.191*%
%ADD17C, 0.151*%
%LPD*%
G54D10*
G75*
G01X160594Y-176288D02*
G03X156594Y-176288I-2000J0D01*
G01*
G54D10*
G75*
G01X164594Y-176288D02*
G03X160594Y-176288I-2000J0D01*
G01*
G54D10*
G75*
G01X168594Y-176288D02*
G03X164594Y-176288I-2000J0D01*
G01*
G54D10*
X112500Y-154750D02*
X112500Y-126250D01*
X163250Y-126250D01*
G54D10*
G75*
G01X274450Y-32500D02*
G03X274450Y-32500I-26250J0D01*
G01*
G54D10*
X242000Y-20000D02*
X242000Y-24000D01*
G54D10*
X254500Y-40500D02*
X254500Y-45000D01*
X248000Y-45000D01*
X248000Y-20000D01*
X254500Y-20000D01*
X254500Y-24000D01*
G54D10*
X242000Y-45000D02*
X242000Y-40500D01*
G54D10*
G75*
G01X274450Y-87500D02*
G03X274450Y-87500I-26250J0D01*
G01*
G54D10*
X242000Y-75000D02*
X242000Y-79000D01*
G54D10*
X254500Y-95500D02*
X254500Y-100000D01*
X248000Y-100000D01*
X248000Y-75000D01*
X254500Y-75000D01*
X254500Y-79000D01*
G54D10*
X242000Y-100000D02*
X242000Y-95500D01*
G54D10*
G75*
G01X273180Y-151979D02*
G03X258938Y-166625I-24457J9535D01*
G01*
G54D10*
X254923Y-154944D02*
X254923Y-150944D01*
G54D10*
X242423Y-134444D02*
X242423Y-129944D01*
X248923Y-129944D01*
X248923Y-154944D01*
X242423Y-154944D01*
X242423Y-150944D01*
G54D10*
X254923Y-129944D02*
X254923Y-134444D01*
G54D10*
G75*
G01X64550Y-88500D02*
G03X64550Y-88500I-26250J0D01*
G01*
G54D10*
X44500Y-101000D02*
X44500Y-97000D01*
G54D10*
X32000Y-80500D02*
X32000Y-76000D01*
X38500Y-76000D01*
X38500Y-101000D01*
X32000Y-101000D01*
X32000Y-97000D01*
G54D10*
X44500Y-76000D02*
X44500Y-80500D01*
G54D11*
X254500Y-176722D02*
X243833Y-176722D01*
G54D11*
X249167Y-172278D02*
X249167Y-181167D01*
G54D11*
X249167Y-229556D02*
X249167Y-218889D01*
G54D12*
X277814Y-87166D02*
X293814Y-87166D01*
X283814Y-93166D01*
X293814Y-99166D01*
X277814Y-99166D01*
G54D12*
X290444Y-45819D02*
X292444Y-44619D01*
X293444Y-42219D01*
X293444Y-39819D01*
X292444Y-37419D01*
X290444Y-36219D01*
X280444Y-36219D01*
X278444Y-37419D01*
X277444Y-39819D01*
X277444Y-42219D01*
X278444Y-44619D01*
X280444Y-45819D01*
G54D13*
X290533Y-137222D02*
X278800Y-137222D01*
G54D13*
X284666Y-132334D02*
X284666Y-142111D01*
G54D10*
X112500Y-197500D02*
X112500Y-226250D01*
X212500Y-226250D01*
X212500Y-197500D01*
G54D10*
G75*
G01X160594Y-73788D02*
G03X156594Y-73788I-2000J0D01*
G01*
G54D10*
G75*
G01X164594Y-73788D02*
G03X160594Y-73788I-2000J0D01*
G01*
G54D10*
G75*
G01X168594Y-73788D02*
G03X164594Y-73788I-2000J0D01*
G01*
G54D10*
X112500Y-52250D02*
X112500Y-23750D01*
X212500Y-23750D01*
X212500Y-52500D01*
G54D10*
X112500Y-95000D02*
X112500Y-123750D01*
X163250Y-123750D01*
G54D14*
G75*
G01X26183Y-16593D02*
G03X26183Y-16593I-1250J0D01*
G01*
G54D10*
G75*
G01X66938Y-22230D02*
G03X35062Y-22230I-15938J-4270D01*
G01*
G54D10*
X18000Y-44000D02*
X18000Y-55000D01*
X84000Y-55000D01*
X84000Y-44000D01*
G54D10*
X18000Y-21500D02*
X18000Y-10000D01*
X84000Y-10000D01*
X84000Y-21000D01*
G54D15*
X246628Y-186281D02*
X241628Y-191281D01*
X254961Y-191281D01*
G54D15*
X254961Y-202948D02*
X254961Y-194948D01*
X254128Y-194948D01*
X252461Y-195948D01*
X247461Y-201948D01*
X245794Y-202948D01*
X244128Y-202948D01*
X242461Y-201948D01*
X241628Y-199948D01*
X241628Y-197948D01*
X242461Y-195948D01*
X244128Y-194948D01*
G54D15*
X247461Y-206615D02*
X254961Y-210615D01*
X247461Y-214615D01*
G54D16*
X180438Y-72429D02*
X189105Y-72429D01*
X190438Y-71629D01*
X191104Y-70029D01*
X191104Y-68429D01*
X190438Y-66829D01*
X189105Y-66029D01*
G54D16*
X180438Y-76162D02*
X191104Y-76162D01*
X191104Y-81762D01*
G54D16*
X189104Y-91895D02*
X190438Y-91095D01*
X191104Y-89495D01*
X191104Y-87895D01*
X190438Y-86295D01*
X189104Y-85495D01*
X182438Y-85495D01*
X181104Y-86295D01*
X180438Y-87895D01*
X180438Y-89495D01*
X181104Y-91095D01*
X182438Y-91895D01*
G54D16*
X180438Y-102028D02*
X189104Y-102028D01*
X190438Y-101228D01*
X191104Y-99628D01*
X191104Y-98028D01*
X190438Y-96428D01*
X189105Y-95628D01*
G54D16*
X180438Y-105761D02*
X191104Y-105761D01*
X191104Y-111361D01*
G54D16*
X189104Y-121494D02*
X190438Y-120694D01*
X191104Y-119094D01*
X191104Y-117494D01*
X190438Y-115894D01*
X189104Y-115094D01*
X182438Y-115094D01*
X181104Y-115894D01*
X180438Y-117494D01*
X180438Y-119094D01*
X181104Y-120694D01*
X182438Y-121494D01*
G54D16*
X180438Y-131627D02*
X189105Y-131627D01*
X190438Y-130827D01*
X191104Y-129227D01*
X191104Y-127627D01*
X190438Y-126027D01*
X189105Y-125227D01*
G54D16*
X180438Y-135360D02*
X191104Y-135360D01*
X191104Y-140960D01*
G54D16*
X189104Y-151093D02*
X190438Y-150293D01*
X191104Y-148693D01*
X191104Y-147093D01*
X190438Y-145493D01*
X189104Y-144693D01*
X182438Y-144693D01*
X181104Y-145493D01*
X180438Y-147093D01*
X180438Y-148693D01*
X181104Y-150293D01*
X182438Y-151093D01*
G54D16*
X180438Y-161226D02*
X189104Y-161226D01*
X190438Y-160426D01*
X191104Y-158826D01*
X191104Y-157226D01*
X190438Y-155626D01*
X189104Y-154826D01*
G54D16*
X180438Y-164959D02*
X191104Y-164959D01*
X191105Y-170559D01*
G54D16*
X189105Y-180692D02*
X190438Y-179892D01*
X191104Y-178292D01*
X191105Y-176692D01*
X190438Y-175092D01*
X189104Y-174292D01*
X182438Y-174292D01*
X181104Y-175092D01*
X180438Y-176692D01*
X180438Y-178292D01*
X181104Y-179892D01*
X182438Y-180692D01*
G36*
X135980Y-6200D02*
X132480Y-6200D01*
X132480Y-18200D01*
X135980Y-18200D01*
X135980Y-6200D01*
G37*
G54D10*
X135980Y-6200D02*
X132480Y-6200D01*
X132480Y-18200D01*
X135980Y-18200D01*
X135980Y-6200D01*
G54D10*
X135980Y-6200D02*
X126230Y-6200D01*
G54D10*
X135980Y-18200D02*
X126230Y-18200D01*
G54D10*
X212500Y-155000D02*
X212500Y-126250D01*
X198000Y-126250D01*
G54D10*
X212500Y-95000D02*
X212500Y-123750D01*
X198000Y-123750D01*
G54D17*
X53080Y-167584D02*
X48013Y-167584D01*
G54D17*
X50546Y-165472D02*
X50546Y-169695D01*
G54D17*
X39990Y-162834D02*
X45056Y-162834D01*
X45056Y-166528D01*
X44423Y-166528D01*
X43156Y-166000D01*
X41890Y-166000D01*
X40623Y-166528D01*
X39990Y-167584D01*
X39990Y-169695D01*
X40623Y-170750D01*
X41890Y-171278D01*
X43156Y-171278D01*
X44423Y-170750D01*
X45056Y-169695D01*
G54D17*
X37034Y-162834D02*
X33867Y-171278D01*
X30700Y-162834D01*
G54D17*
X49084Y-179056D02*
X47184Y-180111D01*
X46551Y-181167D01*
X46551Y-183278D01*
G54D17*
X51618Y-183278D02*
X51618Y-174834D01*
X48451Y-174834D01*
X47184Y-175361D01*
X46551Y-176417D01*
X46551Y-177472D01*
X47184Y-178528D01*
X48451Y-179056D01*
X51618Y-179056D01*
G54D17*
X43594Y-181695D02*
X42961Y-182750D01*
X41694Y-183278D01*
X40428Y-183278D01*
X39161Y-182750D01*
X38528Y-181695D01*
X38528Y-180639D01*
X39161Y-179584D01*
X40428Y-179056D01*
X41694Y-179056D01*
X42961Y-178528D01*
X43594Y-177472D01*
X43594Y-176417D01*
X42961Y-175361D01*
X41694Y-174834D01*
X40428Y-174834D01*
X39161Y-175361D01*
X38528Y-176417D01*
G54D17*
X33038Y-183278D02*
X33038Y-174834D01*
G54D17*
X35572Y-174834D02*
X30505Y-174834D01*
G54D17*
X51616Y-194695D02*
X50983Y-195750D01*
X49716Y-196278D01*
X48449Y-196278D01*
X47183Y-195750D01*
X46549Y-194695D01*
X46549Y-193639D01*
X47183Y-192584D01*
X48449Y-192056D01*
X49716Y-192056D01*
X50983Y-191528D01*
X51616Y-190472D01*
X51616Y-189417D01*
X50983Y-188361D01*
X49716Y-187834D01*
X48449Y-187834D01*
X47183Y-188361D01*
X46549Y-189417D01*
G54D17*
X38526Y-194695D02*
X39160Y-195750D01*
X40426Y-196278D01*
X41693Y-196278D01*
X42960Y-195750D01*
X43593Y-194695D01*
X43593Y-189417D01*
X42960Y-188361D01*
X41693Y-187834D01*
X40426Y-187834D01*
X39160Y-188361D01*
X38526Y-189417D01*
G54D17*
X35570Y-196278D02*
X35570Y-187834D01*
G54D17*
X35570Y-193639D02*
X30503Y-187834D01*
G54D17*
X33670Y-192056D02*
X30503Y-196278D01*
G54D17*
X60874Y-221778D02*
X60874Y-213334D01*
X57707Y-218611D01*
X54540Y-213334D01*
X54540Y-221778D01*
G54D17*
X46518Y-214917D02*
X46518Y-220195D01*
X47151Y-221250D01*
X48418Y-221778D01*
X49684Y-221778D01*
X50951Y-221250D01*
X51584Y-220195D01*
X51584Y-214917D01*
X50951Y-213861D01*
X49684Y-213334D01*
X48418Y-213334D01*
X47151Y-213861D01*
X46518Y-214917D01*
G54D17*
X43562Y-220195D02*
X42928Y-221250D01*
X41662Y-221778D01*
X40395Y-221778D01*
X39128Y-221250D01*
X38495Y-220195D01*
X38495Y-219139D01*
X39128Y-218084D01*
X40395Y-217556D01*
X41662Y-217556D01*
X42928Y-217028D01*
X43562Y-215972D01*
X43562Y-214917D01*
X42928Y-213861D01*
X41662Y-213334D01*
X40395Y-213334D01*
X39128Y-213861D01*
X38495Y-214917D01*
G54D17*
X35538Y-221778D02*
X30472Y-221778D01*
G54D17*
X33005Y-221778D02*
X33005Y-213334D01*
G54D17*
X35538Y-213334D02*
X30472Y-213334D01*
G54D17*
X60870Y-208778D02*
X60870Y-200334D01*
X57704Y-205611D01*
X54537Y-200334D01*
X54537Y-208778D01*
G54D17*
X51582Y-208778D02*
X46515Y-208778D01*
G54D17*
X49048Y-208778D02*
X49048Y-200334D01*
G54D17*
X51582Y-200334D02*
X46515Y-200334D01*
G54D17*
X43558Y-207195D02*
X42925Y-208250D01*
X41658Y-208778D01*
X40392Y-208778D01*
X39125Y-208250D01*
X38492Y-207195D01*
X38492Y-206139D01*
X39125Y-205084D01*
X40392Y-204556D01*
X41658Y-204556D01*
X42925Y-204028D01*
X43558Y-202972D01*
X43558Y-201917D01*
X42925Y-200861D01*
X41658Y-200334D01*
X40392Y-200334D01*
X39125Y-200861D01*
X38492Y-201917D01*
G54D17*
X30469Y-201917D02*
X30469Y-207195D01*
X31102Y-208250D01*
X32369Y-208778D01*
X33636Y-208778D01*
X34902Y-208250D01*
X35536Y-207195D01*
X35536Y-201917D01*
X34902Y-200861D01*
X33636Y-200334D01*
X32369Y-200334D01*
X31102Y-200861D01*
X30469Y-201917D01*
G54D17*
X49081Y-229556D02*
X46548Y-229556D01*
X46548Y-232195D01*
X47181Y-233250D01*
X48448Y-233778D01*
X49714Y-233778D01*
X50981Y-233250D01*
X51614Y-232195D01*
X51614Y-226917D01*
X50981Y-225861D01*
X49714Y-225334D01*
X48448Y-225334D01*
X47181Y-225861D01*
X46548Y-226917D01*
G54D17*
X43592Y-233778D02*
X43592Y-225334D01*
X38525Y-233778D01*
X38525Y-225334D01*
G54D17*
X35568Y-233778D02*
X35568Y-225334D01*
X32402Y-225334D01*
X31135Y-225861D01*
X30502Y-226917D01*
X30502Y-232195D01*
X31135Y-233250D01*
X32402Y-233778D01*
X35568Y-233778D01*
M02*
