%FSLAX34Y34*%
%MOMM*%
%LNSOLDERMASK_TOP*%
G71*
G01*
%ADD10R, 1.100X1.100*%
%ADD11R, 1.500X0.800*%
%ADD12R, 1.370X0.750*%
%ADD13R, 0.800X1.500*%
%ADD14R, 1.700X0.970*%
%ADD15C, 3.100*%
%ADD16C, 1.900*%
%ADD17R, 2.500X1.500*%
%ADD18C, 3.100*%
%ADD19R, 1.100X1.400*%
%ADD20R, 2.600X2.600*%
%ADD21C, 0.100*%
%ADD22C, 2.100*%
%LPD*%
X176000Y-45500D02*
G54D10*
D03*
G36*
X160900Y-62300D02*
X171900Y-62300D01*
X171900Y-73300D01*
X160900Y-73300D01*
X160900Y-62300D01*
G37*
X185500Y-67800D02*
G54D10*
D03*
X176000Y-204500D02*
G54D10*
D03*
X185600Y-182200D02*
G54D10*
D03*
X166500Y-182200D02*
G54D10*
D03*
X164500Y-111500D02*
G54D11*
D03*
X164500Y-90500D02*
G54D11*
D03*
X164500Y-138500D02*
G54D11*
D03*
X164500Y-159500D02*
G54D11*
D03*
X80050Y-128550D02*
G54D12*
D03*
G36*
X73200Y-112100D02*
X86900Y-112100D01*
X86900Y-119600D01*
X73200Y-119600D01*
X73200Y-112100D01*
G37*
G36*
X73200Y-99400D02*
X86900Y-99400D01*
X86900Y-106900D01*
X73200Y-106900D01*
X73200Y-99400D01*
G37*
X80050Y-90450D02*
G54D12*
D03*
X130850Y-90450D02*
G54D12*
D03*
G36*
X124000Y-99400D02*
X137700Y-99400D01*
X137700Y-106900D01*
X124000Y-106900D01*
X124000Y-99400D01*
G37*
X130850Y-115850D02*
G54D12*
D03*
X130850Y-128550D02*
G54D12*
D03*
X113500Y-144000D02*
G54D13*
D03*
X92500Y-144000D02*
G54D13*
D03*
X95000Y-75000D02*
G54D13*
D03*
X116000Y-75000D02*
G54D13*
D03*
X80050Y-197550D02*
G54D12*
D03*
G36*
X73200Y-181100D02*
X86900Y-181100D01*
X86900Y-188600D01*
X73200Y-188600D01*
X73200Y-181100D01*
G37*
X80050Y-172150D02*
G54D12*
D03*
X80050Y-159450D02*
G54D12*
D03*
X130850Y-159450D02*
G54D12*
D03*
G36*
X124000Y-168400D02*
X137700Y-168400D01*
X137700Y-175900D01*
X124000Y-175900D01*
X124000Y-168400D01*
G37*
X130850Y-184850D02*
G54D12*
D03*
X130850Y-197550D02*
G54D12*
D03*
X182700Y-139300D02*
G54D14*
D03*
X182700Y-169700D02*
G54D14*
D03*
X182700Y-80300D02*
G54D14*
D03*
X182700Y-110700D02*
G54D14*
D03*
X300000Y-20000D02*
G54D15*
D03*
X300000Y-70000D02*
G54D15*
D03*
X300000Y-120000D02*
G54D15*
D03*
X300000Y-170000D02*
G54D15*
D03*
X300000Y-220000D02*
G54D15*
D03*
X277500Y-170000D02*
G54D15*
D03*
X277500Y-220000D02*
G54D15*
D03*
X260500Y-32500D02*
G54D16*
D03*
X235500Y-32500D02*
G54D16*
D03*
X260500Y-87500D02*
G54D16*
D03*
X235500Y-87500D02*
G54D16*
D03*
X236423Y-142444D02*
G54D16*
D03*
X261423Y-142444D02*
G54D16*
D03*
X207024Y-191189D02*
G54D17*
D03*
X207024Y-141989D02*
G54D17*
D03*
X207000Y-58500D02*
G54D17*
D03*
X207000Y-107700D02*
G54D17*
D03*
X57500Y-137000D02*
G54D11*
D03*
X57500Y-116000D02*
G54D11*
D03*
X57500Y-168000D02*
G54D11*
D03*
X57500Y-147000D02*
G54D11*
D03*
X40500Y-137000D02*
G54D11*
D03*
X40500Y-116000D02*
G54D11*
D03*
X40500Y-168000D02*
G54D11*
D03*
X40500Y-147000D02*
G54D11*
D03*
X40500Y-199000D02*
G54D11*
D03*
X40500Y-178000D02*
G54D11*
D03*
X57500Y-199000D02*
G54D11*
D03*
X57500Y-178000D02*
G54D11*
D03*
X147500Y-111500D02*
G54D11*
D03*
X147500Y-90500D02*
G54D11*
D03*
X147500Y-159500D02*
G54D11*
D03*
X147500Y-138500D02*
G54D11*
D03*
X23500Y-126500D02*
G54D11*
D03*
X23500Y-105500D02*
G54D11*
D03*
X26000Y-88500D02*
G54D16*
D03*
X51000Y-88500D02*
G54D16*
D03*
G54D18*
X277500Y-170000D02*
X300000Y-170000D01*
G54D18*
X300000Y-220000D02*
X277500Y-220000D01*
X116001Y-56500D02*
G54D19*
D03*
X146001Y-56500D02*
G54D19*
D03*
G36*
X125500Y-49500D02*
X136500Y-49500D01*
X136501Y-63500D01*
X125501Y-63500D01*
X125500Y-49500D01*
G37*
X131000Y-26000D02*
G54D20*
D03*
G36*
X126000Y-38000D02*
X136000Y-38000D01*
X136001Y-50500D01*
X126000Y-50500D01*
X126000Y-38000D01*
G37*
G54D21*
X126000Y-38000D02*
X136000Y-38000D01*
X136001Y-50500D01*
X126000Y-50500D01*
X126000Y-38000D01*
X147000Y-75000D02*
G54D13*
D03*
X126000Y-75000D02*
G54D13*
D03*
X74000Y-52500D02*
G54D13*
D03*
X53000Y-52500D02*
G54D13*
D03*
X203500Y-125000D02*
G54D13*
D03*
X182500Y-125000D02*
G54D13*
D03*
X76000Y-32500D02*
G54D22*
D03*
X51000Y-32500D02*
G54D22*
D03*
X26000Y-32500D02*
G54D22*
D03*
X15500Y-52500D02*
G54D13*
D03*
X36500Y-52500D02*
G54D13*
D03*
X26000Y-69500D02*
G54D13*
D03*
X47000Y-69500D02*
G54D13*
D03*
M02*
