; Drill file
; Format: 3.3 (000.000)
M48
METRIC
T01C0.3
T02C0.8
T03C1.5
%
G05
G90
T01
X002150Y-019190
X002150Y-017920
X004500Y-018850
X005750Y-018850
X006900Y-019820
X009400Y-020500
X010060Y-019760
X010060Y-018860
X009950Y-016850
X009350Y-016850
X008000Y-015050
X008000Y-013700
X006300Y-015750
X003500Y-012650
X001850Y-014670
X000800Y-014670
X006750Y-010320
X006500Y-009440
X005650Y-006950
X010100Y-010320
X010940Y-011580
X011840Y-011580
X011840Y-010320
X014340Y-010220
X016900Y-012500
X017500Y-012500
X016450Y-017110
X017760Y-018420
X020200Y-018900
X020700Y-018900
X021200Y-018900
X011840Y-012860
X011600Y-004450
X010550Y-003500
X010550Y-002900
X010550Y-002300
X010550Y-001700
X014600Y-004450
X020200Y-006100
X020700Y-006100
X021200Y-006100
T02
X002600Y-008850
X005100Y-008850
X005100Y-003250
X007600Y-003250
X002600Y-003250
X023550Y-003250
X026050Y-003250
X026050Y-008750
X023550Y-008750
X023640Y-014240
X026140Y-014240
T03
X027750Y-022000
X030000Y-022000
X030000Y-017000
X027750Y-017000
X030000Y-012000
X030000Y-007000
X030000Y-002000
M30
